<?xml version="1.0" standalone="no"?>
<!DOCTYPE svg PUBLIC "-//W3C//DTD SVG 20010904//EN"
 "http://www.w3.org/TR/2001/REC-SVG-20010904/DTD/svg10.dtd">
<svg version="1.0" xmlns="http://www.w3.org/2000/svg"
 width="725.000000pt" height="725.000000pt" viewBox="0 0 725.000000 725.000000"
 preserveAspectRatio="xMidYMid meet">
<metadata>
Created by potrace 1.11, written by Peter Selinger 2001-2013
</metadata>
<g transform="translate(0.000000,725.000000) scale(0.100000,-0.100000)"
fill="#000000" stroke="none">
<path d="M3431 7209 c-153 -30 -268 -92 -386 -208 -142 -140 -211 -305 -214
-513 -4 -206 65 -382 206 -525 148 -150 321 -223 534 -223 255 0 478 119 619
331 44 66 95 187 105 250 4 24 9 53 11 64 16 80 2 221 -33 325 -83 254 -291
440 -551 495 -73 16 -221 18 -291 4z"/>
<path d="M2032 5809 c-75 -13 -197 -62 -264 -107 -153 -102 -257 -242 -313
-423 -24 -76 -29 -275 -10 -358 82 -347 378 -584 725 -582 104 1 112 2 203 27
34 9 70 17 79 18 15 1 478 -448 478 -463 0 -3 -10 -35 -21 -71 -70 -221 -25
-484 115 -665 104 -135 242 -227 410 -274 103 -28 293 -23 404 11 l83 26 243
-239 243 -240 -24 -87 c-54 -200 -24 -417 82 -588 107 -172 283 -295 480 -337
88 -19 257 -15 340 7 128 35 279 126 356 214 60 69 71 84 110 156 97 180 111
392 41 612 -9 30 -6 33 193 236 112 114 205 205 207 203 6 -6 118 -35 163 -42
48 -8 186 -8 235 0 266 43 505 251 583 507 57 185 41 394 -42 558 -165 328
-551 489 -893 374 l-52 -17 -225 228 c-124 126 -227 230 -229 232 -2 2 6 36
17 77 11 40 23 89 26 108 14 75 5 243 -15 295 -5 14 -8 25 -5 25 5 0 -25 72
-61 145 -57 119 -191 248 -322 311 -440 213 -945 -29 -1058 -507 -3 -13 -8
-76 -9 -139 -3 -97 0 -130 20 -209 l25 -94 -216 -213 -215 -212 -53 18 c-29
11 -64 21 -77 23 -13 3 -41 8 -63 12 -86 17 -229 6 -327 -25 l-60 -18 -239
236 -239 237 19 68 c26 92 31 129 31 224 0 110 -24 211 -76 318 -94 196 -273
341 -485 394 -82 20 -230 25 -318 10z m238 -395 c67 -20 115 -50 162 -102 44
-48 55 -69 74 -132 66 -224 -103 -454 -333 -451 -142 2 -253 73 -320 204 -38
75 -42 189 -8 271 30 74 68 122 129 164 90 60 194 76 296 46z m2850 -49 c153
-34 270 -180 271 -336 1 -145 -76 -265 -211 -328 -46 -21 -70 -26 -140 -26
-73 0 -94 5 -144 29 -74 35 -140 101 -174 174 -23 49 -27 70 -27 147 1 79 4
97 29 147 75 150 237 229 396 193z m-226 -1069 c37 -9 99 -13 161 -11 114 4
128 5 210 29 l59 18 229 -232 c164 -167 227 -236 222 -248 -3 -9 -15 -50 -25
-91 -35 -134 -31 -281 11 -409 20 -62 20 -64 2 -84 -10 -11 -100 -105 -201
-208 l-183 -187 -82 25 c-112 33 -276 34 -392 2 -44 -12 -85 -23 -92 -23 -9
-2 -420 396 -485 469 -16 19 -16 23 4 84 31 96 31 297 0 397 l-23 73 223 219
222 219 40 -14 c22 -8 67 -21 100 -28z m-1134 -344 c175 -81 256 -294 177
-466 -32 -68 -105 -141 -175 -174 -49 -23 -70 -27 -147 -27 -78 1 -98 5 -147
29 -277 136 -265 523 19 642 50 21 70 24 143 21 58 -3 99 -11 130 -25z m2816
-40 c34 -11 71 -31 92 -50 7 -6 21 -16 31 -21 30 -16 90 -115 105 -173 33
-128 -2 -252 -98 -344 -223 -215 -595 -50 -589 261 3 151 106 284 256 330 45
14 152 12 203 -3z m-1352 -1403 c226 -84 297 -392 130 -563 -148 -152 -379
-150 -518 5 -244 272 44 687 388 558z"/>
<path d="M655 4413 c-142 -20 -304 -104 -413 -214 -139 -141 -210 -317 -210
-522 0 -210 75 -387 225 -532 143 -139 316 -207 523 -206 322 0 607 214 699
524 29 96 31 110 31 204 0 136 -15 209 -65 320 -122 266 -376 431 -665 431
-52 -1 -108 -2 -125 -5z"/>
<path d="M2079 2940 c-328 -68 -572 -357 -584 -691 -6 -186 46 -352 154 -489
141 -179 335 -277 559 -285 560 -17 932 551 696 1063 -61 131 -200 274 -329
339 -43 22 -150 58 -200 68 -71 15 -212 12 -296 -5z"/>
<path d="M3540 1514 c-41 -7 -95 -21 -120 -31 -25 -9 -47 -18 -50 -18 -3 0
-36 -18 -75 -39 -145 -82 -278 -245 -334 -413 -119 -354 61 -757 405 -909 158
-70 375 -81 534 -27 232 78 422 282 486 518 38 142 21 351 -40 488 -137 309
-472 489 -806 431z"/>
</g>
</svg>
